<svg width="100" height="100" viewBox="0 0 100 100" fill="none" xmlns="http://www.w3.org/2000/svg">
<path d="M70.8333 41.8292C54.7542 41.8292 41.6667 54.9125 41.6667 70.9958C41.6667 86.9875 54.7542 100 70.8333 100C86.9125 100 100 86.9167 100 70.8333C100 54.8417 86.9125 41.8292 70.8333 41.8292ZM70.8333 91.6667C59.3458 91.6667 50 82.3917 50 70.9958C50 59.5083 59.3458 50.1625 70.8333 50.1625C82.3208 50.1625 91.6667 59.4375 91.6667 70.8333C91.6667 82.3208 82.3208 91.6667 70.8333 91.6667ZM77.9458 72.0542C79.575 73.6833 79.575 76.3167 77.9458 77.9458C77.1333 78.7583 76.0667 79.1667 75 79.1667C73.9333 79.1667 72.8667 78.7583 72.0542 77.9458L67.8875 73.7792C67.1042 72.9958 66.6667 71.9375 66.6667 70.8333V62.5C66.6667 60.2 68.5292 58.3333 70.8333 58.3333C73.1375 58.3333 75 60.2 75 62.5V69.1083L77.9458 72.0542ZM100 29.1667V37.5C100 39.8 98.1375 41.6667 95.8333 41.6667C93.5292 41.6667 91.6667 39.8 91.6667 37.5V29.1667C91.6667 22.275 86.0583 16.6667 79.1667 16.6667H20.8333C13.9417 16.6667 8.33333 22.275 8.33333 29.1667V33.3333H45.8333C48.1333 33.3333 50 35.2 50 37.5C50 39.8 48.1333 41.6667 45.8333 41.6667H8.33333V79.1667C8.33333 86.0583 13.9417 91.6667 20.8333 91.6667H37.5C39.8 91.6667 41.6667 93.5333 41.6667 95.8333C41.6667 98.1333 39.8 100 37.5 100H20.8333C9.34583 100 0 90.6542 0 79.1667V29.1667C0 17.6792 9.34583 8.33333 20.8333 8.33333H25V4.16667C25 1.86667 26.8667 0 29.1667 0C31.4667 0 33.3333 1.86667 33.3333 4.16667V8.33333H66.6667V4.16667C66.6667 1.86667 68.5292 0 70.8333 0C73.1375 0 75 1.86667 75 4.16667V8.33333H79.1667C90.6542 8.33333 100 17.6792 100 29.1667Z" fill="#BF0603"/>
</svg>
