<svg width="106" height="106" viewBox="0 0 106 106" fill="none" xmlns="http://www.w3.org/2000/svg">
<g clip-path="url(#clip0_572_40)">
<path d="M77.2113 8.45801C72.2431 8.53529 67.3832 9.92217 63.1225 12.4786C58.8617 15.035 55.351 18.6705 52.9448 23.0179C50.5387 18.6705 47.028 15.035 42.7672 12.4786C38.5065 9.92217 33.6466 8.53529 28.6784 8.45801C20.7585 8.80211 13.2966 12.2668 7.92301 18.095C2.54944 23.9233 -0.299046 31.6414 -0.000125038 39.5632C-0.000125038 59.6249 21.1161 81.5353 38.8262 96.3908C42.7804 99.7136 47.7799 101.535 52.9448 101.535C58.1098 101.535 63.1093 99.7136 67.0635 96.3908C84.7736 81.5353 105.89 59.6249 105.89 39.5632C106.189 31.6414 103.34 23.9233 97.9667 18.095C92.5931 12.2668 85.1312 8.80211 77.2113 8.45801Z" fill="#BF0603"/>
</g>
<defs>
<clipPath id="clip0_572_40">
<rect width="105.89" height="105.89" fill="white"/>
</clipPath>
</defs>
</svg>
