<svg width="100" height="100" viewBox="0 0 100 100" fill="none" xmlns="http://www.w3.org/2000/svg">
<g clip-path="url(#clip0_572_36)">
<path d="M35.5621 60.2667C31.6287 56.3333 26.3954 54.1667 20.8329 54.1667C15.2704 54.1667 10.0371 56.3333 6.09957 60.2667C-2.02543 68.3917 -2.02543 81.6083 6.17041 89.7958L14.5579 97.4375C16.2954 99.1375 18.5787 99.9833 20.8537 99.9833C23.1121 99.9833 25.3621 99.15 27.0579 97.4875L35.5662 89.7292C39.5037 85.7958 41.6704 80.5625 41.6704 74.9958C41.6704 69.4292 39.5037 64.2 35.5662 60.2625L35.5621 60.2667ZM32.6871 86.7167L24.1954 94.4583C22.3454 96.275 19.3246 96.2667 17.4204 94.4083L9.04957 86.7833C2.54957 80.2833 2.54957 69.7083 9.04957 63.2125C12.1996 60.0667 16.3829 58.3333 20.8371 58.3333C25.2912 58.3333 29.4746 60.0667 32.6204 63.2125C35.7704 66.3583 37.5037 70.5458 37.5037 75C37.5037 79.4542 35.7704 83.6375 32.6912 86.7167H32.6871ZM20.8329 66.6667C16.2371 66.6667 12.4996 70.4042 12.4996 75C12.4996 79.5958 16.2371 83.3333 20.8329 83.3333C25.4287 83.3333 29.1662 79.5958 29.1662 75C29.1662 70.4042 25.4287 66.6667 20.8329 66.6667ZM20.8329 79.1667C18.5371 79.1667 16.6662 77.2958 16.6662 75C16.6662 72.7042 18.5371 70.8333 20.8329 70.8333C23.1287 70.8333 24.9996 72.7042 24.9996 75C24.9996 77.2958 23.1287 79.1667 20.8329 79.1667ZM93.8954 6.1C89.9621 2.16667 84.7287 0 79.1662 0C73.6037 0 68.3704 2.16667 64.4329 6.1C56.3079 14.225 56.3079 27.4417 64.5037 35.6292L72.8912 43.2708C74.6287 44.9708 76.9121 45.8167 79.1871 45.8167C81.4454 45.8167 83.6954 44.9833 85.3912 43.3208L93.8996 35.5625C97.8371 31.6292 100.004 26.3958 100.004 20.8292C100.004 15.2625 97.8371 10.0333 93.8996 6.09583L93.8954 6.1ZM91.0204 32.55L82.5287 40.2917C80.6746 42.1083 77.6621 42.1042 75.7537 40.2417L67.3829 32.6167C60.8829 26.1167 60.8829 15.5417 67.3829 9.04583C70.5329 5.9 74.7162 4.16667 79.1704 4.16667C83.6246 4.16667 87.8079 5.9 90.9537 9.04583C94.1037 12.1917 95.8371 16.3792 95.8371 20.8333C95.8371 25.2875 94.1037 29.4708 91.0246 32.55H91.0204ZM79.1662 12.5C74.5704 12.5 70.8329 16.2375 70.8329 20.8333C70.8329 25.4292 74.5704 29.1667 79.1662 29.1667C83.7621 29.1667 87.4996 25.4292 87.4996 20.8333C87.4996 16.2375 83.7621 12.5 79.1662 12.5ZM79.1662 25C76.8704 25 74.9996 23.1292 74.9996 20.8333C74.9996 18.5375 76.8704 16.6667 79.1662 16.6667C81.4621 16.6667 83.3329 18.5375 83.3329 20.8333C83.3329 23.1292 81.4621 25 79.1662 25ZM52.8787 63.4375C53.6704 64.2708 53.6412 65.5875 52.8079 66.3833C52.4037 66.7667 51.8871 66.9583 51.3704 66.9583C50.8204 66.9583 50.2746 66.7417 49.8621 66.3125C47.6121 63.9542 46.2037 60.8708 45.8996 57.6333C45.7912 56.4875 46.6329 55.4708 47.7787 55.3667C48.9537 55.225 49.9412 56.1 50.0454 57.2458C50.2621 59.5542 51.2662 61.7542 52.8787 63.4375ZM99.8746 81.3C99.9579 81.9667 99.9996 82.6458 99.9996 83.3333C99.9996 85.8667 99.4454 88.3 98.3496 90.5708C97.9912 91.3167 97.2454 91.75 96.4704 91.75C96.1662 91.75 95.8579 91.6833 95.5662 91.5417C94.5287 91.0417 94.0954 89.7958 94.5954 88.7625C95.4162 87.0625 95.8287 85.2375 95.8287 83.3375C95.8287 82.8208 95.7996 82.3083 95.7371 81.8083C95.5954 80.6667 96.4121 79.6292 97.5537 79.4875C98.7079 79.3167 99.7371 80.1625 99.8746 81.3042V81.3ZM47.6162 97.9167C47.6162 99.0667 46.6829 100 45.5329 100H39.5829C38.4329 100 37.4996 99.0667 37.4996 97.9167C37.4996 96.7667 38.4329 95.8333 39.5829 95.8333H45.5329C46.6829 95.8333 47.6162 96.7667 47.6162 97.9167ZM89.1662 96.8667C89.4662 97.9792 88.8121 99.125 87.6996 99.4208C86.2871 99.8042 84.8162 100 83.3329 100H78.8662C77.7162 100 76.7829 99.0667 76.7829 97.9167C76.7829 96.7667 77.7162 95.8333 78.8662 95.8333H83.3329C84.4496 95.8333 85.5496 95.6875 86.6079 95.4C87.7246 95.0958 88.8662 95.7542 89.1662 96.8667ZM92.6371 69.5C93.5912 70.1417 93.8454 71.4375 93.1996 72.3917C92.7954 72.9917 92.1412 73.3125 91.4704 73.3125C91.0704 73.3125 90.6662 73.1958 90.3079 72.9583C88.3204 71.6208 85.9996 70.8875 83.5912 70.8375C82.4412 70.8125 81.5287 69.8625 81.5496 68.7125C81.5746 67.5625 82.6329 66.7458 83.6746 66.6708C86.8829 66.7375 89.9829 67.7167 92.6329 69.5042L92.6371 69.5ZM73.2204 68.75C73.2204 69.9 72.2871 70.8333 71.1371 70.8333H62.8037C61.6537 70.8333 60.7204 69.9 60.7204 68.75C60.7204 67.6 61.6537 66.6667 62.8037 66.6667H71.1371C72.2871 66.6667 73.2204 67.6 73.2204 68.75ZM68.4537 97.9167C68.4537 99.0667 67.5204 100 66.3704 100H58.0371C56.8871 100 55.9537 99.0667 55.9537 97.9167C55.9537 96.7667 56.8871 95.8333 58.0371 95.8333H66.3704C67.5204 95.8333 68.4537 96.7667 68.4537 97.9167ZM60.4204 45.8333C58.0579 45.8333 55.8329 46.6042 53.9829 48.0583C53.5996 48.3583 53.1454 48.5042 52.6954 48.5042C52.0787 48.5042 51.4704 48.2333 51.0579 47.7125C50.3454 46.8083 50.4996 45.4958 51.4037 44.7875C53.9954 42.7458 57.1162 41.6667 60.4204 41.6667C61.5704 41.6667 62.5037 42.6 62.5037 43.75C62.5037 44.9 61.5704 45.8333 60.4204 45.8333Z" fill="#BF0603"/>
</g>
<defs>
<clipPath id="clip0_572_36">
<rect width="100" height="100" fill="white"/>
</clipPath>
</defs>
</svg>
